<?xml version="1.0" encoding="utf-8"?>
<!-- Generator: Adobe Illustrator 15.1.0, SVG Export Plug-In . SVG Version: 6.00 Build 0)  -->
<!DOCTYPE svg PUBLIC "-//W3C//DTD SVG 1.1//EN" "http://www.w3.org/Graphics/SVG/1.1/DTD/svg11.dtd">
<svg version="1.1" id="Layer_1" xmlns="http://www.w3.org/2000/svg" xmlns:xlink="http://www.w3.org/1999/xlink" x="0px" y="0px"
	 width="748.788px" height="634.343px" viewBox="0 0 748.788 634.343" enable-background="new 0 0 748.788 634.343"
	 xml:space="preserve">
<g>
	<g>
		<g>
			<path fill="#1A3D5D" d="M644.594,183.907c0-32.867-26.883-59.787-59.809-59.787H251.186V96.965
				c0-18.587-15.153-33.755-33.732-33.755H62.443c-18.565,0-33.763,15.168-33.763,33.755v86.942v41.016h615.914V183.907z"/>
			<path fill="#1A3D5D" d="M600.837,267.093H72.453c-24.062,0-43.772,19.74-43.772,43.788v103.786v150.631v43.757h43.772h528.384
				h43.757v-43.757V414.667V310.88C644.594,286.833,624.928,267.093,600.837,267.093z"/>
		</g>
	</g>
</g>
<path fill-rule="evenodd" clip-rule="evenodd" fill="#F2F2F2" d="M447.413,369.477c8.313,0,15.134,7.278,15.134,16.192v164.972
	h-67.265V385.669c0-8.914,6.815-16.192,15.135-16.192H447.413L447.413,369.477z M579.1,570.9h-11.055h-0.776H111.909l-0.377,0.102
	H85.908c-7.147,0-12.999,3.327-12.999,7.379v0.438c0,4.058,5.852,7.374,12.999,7.374h11.071h0.765h455.381l0.397-0.109H579.1
	c7.188,0,13.002-3.312,13.002-7.371v-0.445C592.102,574.221,586.287,570.9,579.1,570.9z M251.616,426.477h-36.977
	c-8.351,0-15.126,7.025-15.126,15.62v109.549h67.245V442.097C266.757,433.502,259.955,426.477,251.616,426.477L251.616,426.477z
	 M349.51,297.164h-37.012c-8.311,0-15.113,7.66-15.113,17.052v235.378h67.276V314.216
	C364.661,304.824,357.842,297.164,349.51,297.164L349.51,297.164z M147.606,381.808h-36.977c-8.351,0-15.126,9.532-15.126,21.194
	v148.644h67.244V403.002C162.747,391.34,155.945,381.808,147.606,381.808L147.606,381.808z M548.616,396.959H511.64
	c-8.352,0-15.127,8.508-15.127,18.917v132.672h67.244V415.876C563.757,405.467,556.955,396.959,548.616,396.959L548.616,396.959z"/>
<g>
	<ellipse fill="#FFFFFF" cx="553.829" cy="192.252" rx="130.959" ry="127.777"/>
	<path fill="#51B8D5" d="M554.002,21.36c-92.132,0-166.85,74.67-166.85,166.785c0,92.125,74.718,166.795,166.85,166.795
		c92.131,0,166.786-74.67,166.786-166.795C720.788,96.03,646.133,21.36,554.002,21.36z M638.739,218.62h-54.24v54.271
		c0,15.508-12.554,28.059-28.044,28.059c-15.506,0-28.058-12.551-28.058-28.059V218.62h-54.319
		c-15.443,0-28.011-12.568-28.011-28.066s12.567-28.074,28.011-28.074h54.319v-54.248c0-15.506,12.552-28.066,28.058-28.066
		c15.49,0,28.044,12.561,28.044,28.066v54.248h54.24c15.521,0,28.09,12.576,28.09,28.074S654.26,218.62,638.739,218.62z"/>
</g>
</svg>
