<?xml version="1.0" encoding="utf-8"?>
<!-- Generator: Adobe Illustrator 15.1.0, SVG Export Plug-In . SVG Version: 6.00 Build 0)  -->
<!DOCTYPE svg PUBLIC "-//W3C//DTD SVG 1.1//EN" "http://www.w3.org/Graphics/SVG/1.1/DTD/svg11.dtd">
<svg version="1.1" id="Layer_1" xmlns="http://www.w3.org/2000/svg" xmlns:xlink="http://www.w3.org/1999/xlink" x="0px" y="0px"
	 width="663px" height="558px" viewBox="0 0 663 558" enable-background="new 0 0 663 558" xml:space="preserve">
<g>
	<path fill="#51B8D5" d="M656.707,75.665c0.082-40.37-27.697-63.701-62.994-64.801c-35.297,1.1-63.053,24.431-62.994,64.801
		c-0.033,27.559,12.893,57.48,32.309,74.069c0.012,0.266-0.082,0.498-0.047,0.764l4.1,39.433c0.418,4.042,3.721,7.321,7.393,7.321
		h4.285c-9.012,22.681-20.121,66.052-23.725,146.724c-4.088,77.195-43.451,110.187-83.973,110.431
		c-17.422,0-35.91-6.418-52.973-19.693c11.77-23.261,17.84-55.372,17.885-100.955c0-8.479-0.186-17.468-0.648-26.933
		c-0.578-12.406-0.832-24.188-0.832-35.309c0-16.299,0.578-31.15,1.504-44.761h21.199c5.305,0,10.078-4.298,10.68-9.591
		l2.723-23.631c-12.117,7.101-26.168,11.247-41.238,11.247c-15.049,0-29.1-4.146-41.216-11.236l2.711,23.62
		c0.579,5.293,5.374,9.591,10.691,9.591h9.361c-0.893,13.715-1.438,28.577-1.438,44.761c0,11.514,0.256,23.666,0.857,36.478
		c0.418,9.082,0.604,17.678,0.604,25.764c0.045,37.926-4.588,64.269-11.794,82.351c-1.783-2.154-3.591-4.216-5.305-6.568
		c-22.184-30.64-44.02-43.833-64.976-43.915c-4.865,0.036-9.312,0.868-13.507,2.097v-142.24c0-17.284-13.993-31.3-31.277-31.3
		h-33.906c-17.284,0-31.3,14.016-31.3,31.3v22.554l30.234-0.012c18.627,0.035,33.698,15.118,33.698,33.733v23.018
		c0,18.65-15.07,33.698-33.698,33.745h-30.234v65.971H249.1c18.627,0,33.698,15.095,33.698,33.697v23.042
		c0,18.614-15.07,33.708-33.698,33.708h-30.234v22.566c0,17.26,14.017,31.276,31.3,31.276h33.906
		c17.284,0,31.277-14.017,31.277-31.276v-35.251c6.256,1.611,12.802,2.619,19.682,2.665c3.776,0,7.657-0.302,11.549-0.903
		c20.91-3.197,41.727-11.062,57.503-28.485c20.689,15.661,43.951,23.921,66.979,23.921c0.152,0,0.486,0,0.486,0
		c56.01,0,105.381-49.186,108.51-134.34c2.873-65.705,10.945-105.01,17.955-127.321c3.15-10.02,6.033-16.472,8.152-20.538h6.789
		c3.672,0,6.986-3.279,7.402-7.321l4.113-39.433c0.035-0.278-0.059-0.509-0.059-0.776
		C643.826,133.123,656.754,103.212,656.707,75.665z M342.641,459.283c-2.537,0.405-5.085,0.591-7.611,0.591
		c-6.567,0.069-13.194-1.413-19.682-3.766v-61.29c4.252-2.56,8.769-4.193,13.507-4.171c9.431-0.081,24.593,6.001,44.726,33.605
		c3.777,5.201,7.81,9.95,11.956,14.445C374.52,450.896,360.748,456.236,342.641,459.283z"/>
	<path fill="#51B8D5" d="M128.88,461.23v-23.042c0-18.603,15.095-33.697,33.709-33.697h17.168V338.52h-17.168
		c-18.614-0.047-33.709-15.095-33.709-33.745v-23.018c0-18.615,15.095-33.698,33.709-33.698h17.168v-22.578
		c0-17.284-13.994-31.3-31.277-31.3H41.594c-17.283,0-31.3,14.016-31.3,31.3v292.022c0,17.26,14.017,31.276,31.3,31.276H148.48
		c17.283,0,31.277-14.017,31.277-31.276v-22.566h-17.168C143.975,494.938,128.88,479.844,128.88,461.23z"/>
	<path fill="#51B8D5" d="M140.615,438.188v23.018c0,12.14,9.847,21.998,21.975,21.998h86.51c12.139,0,21.962-9.858,21.962-21.998
		v-23.018c0-12.14-9.823-21.975-21.962-21.975h-86.51C150.461,416.213,140.615,426.048,140.615,438.188z"/>
	<path fill="#51B8D5" d="M140.615,281.757v23.018c0,12.141,9.847,21.985,21.975,21.985h86.51c12.139,0,21.962-9.845,21.962-21.985
		v-23.018c0-12.129-9.823-21.975-21.962-21.975h-86.51C150.461,259.783,140.615,269.628,140.615,281.757z"/>
	<path fill="#51B8D5" d="M429.359,195.016c39.789,0,72.006-32.238,72.006-72.018c0-39.768-32.217-71.994-72.006-71.994
		c-39.757,0-71.996,32.226-71.996,71.994C357.364,162.777,389.602,195.016,429.359,195.016z M429.359,72.584
		c27.859,0,50.447,22.555,50.447,50.414c0,27.859-22.588,50.46-50.447,50.46c-27.85,0-50.437-22.601-50.437-50.46
		C378.922,95.139,401.51,72.584,429.359,72.584z"/>
	<path fill="#51B8D5" d="M438.441,119.511l5.225-2.688l0.381-0.291l19.635-23.689c0.383-0.452,0.361-1.064-0.035-1.494
		c-0.404-0.405-1.006-0.462-1.482-0.127l-25.021,17.932l-0.312,0.335l-3.021,4.947C435.914,115.537,437.584,117.298,438.441,119.511
		z"/>
	<path fill="#51B8D5" d="M429.359,128.941c3.277,0,5.93-2.665,5.93-5.943c0-3.254-2.652-5.92-5.93-5.92
		c-3.268,0-5.943,2.666-5.943,5.92C423.416,126.276,426.092,128.941,429.359,128.941z"/>
</g>
</svg>
