<?xml version="1.0" encoding="utf-8"?>
<!-- Generator: Adobe Illustrator 15.1.0, SVG Export Plug-In . SVG Version: 6.00 Build 0)  -->
<!DOCTYPE svg PUBLIC "-//W3C//DTD SVG 1.1//EN" "http://www.w3.org/Graphics/SVG/1.1/DTD/svg11.dtd">
<svg version="1.1" id="Layer_1" xmlns="http://www.w3.org/2000/svg" xmlns:xlink="http://www.w3.org/1999/xlink" x="0px" y="0px"
	 width="100px" height="100px" viewBox="0 0 100 100" enable-background="new 0 0 100 100" xml:space="preserve">
<path fill="#51B7D5" d="M50,100C22.43,100,0,77.57,0,50C0,22.43,22.43,0,50,0c27.57,0,50,22.43,50,50C100,77.57,77.57,100,50,100
	L50,100z M50,17.54c-17.899,0-32.46,14.561-32.46,32.46c0,17.898,14.562,32.46,32.46,32.46c17.898,0,32.46-14.562,32.46-32.46
	C82.46,32.101,67.898,17.54,50,17.54L50,17.54z"/>
<circle fill="#51B7D5" cx="50" cy="50" r="11.664"/>
</svg>
