<?xml version="1.0" encoding="utf-8"?>
<!-- Generator: Adobe Illustrator 15.1.0, SVG Export Plug-In . SVG Version: 6.00 Build 0)  -->
<!DOCTYPE svg PUBLIC "-//W3C//DTD SVG 1.1//EN" "http://www.w3.org/Graphics/SVG/1.1/DTD/svg11.dtd">
<svg version="1.1" id="Layer_1" xmlns="http://www.w3.org/2000/svg" xmlns:xlink="http://www.w3.org/1999/xlink" x="0px" y="0px"
	 width="100px" height="69.329px" viewBox="0 19.171 100 69.329" enable-background="new 0 19.171 100 69.329" xml:space="preserve"
	>
<polygon fill="#51B7D5" points="89.588,60.432 87.703,46.045 70.727,28.45 62.896,44.063 56.732,28.581 45.685,19.171 
	32.335,45.793 22.913,33.555 2.474,74.332 4.39,75.293 23.634,36.92 23.601,48.216 29.56,56.441 23.894,63.834 40.673,80.061 
	33.701,59.395 37.054,51.915 33.787,47.677 45.951,23.422 43.778,37.051 48.479,44.622 46.826,57.557 56.395,47.472 63.957,46.728 
	71.424,31.84 74.083,53.289 64.186,57.986 59.822,80.061 78.115,65.201 96.087,73.119 "/>
</svg>
