<?xml version="1.0" encoding="utf-8"?>
<!-- Generator: Adobe Illustrator 15.1.0, SVG Export Plug-In . SVG Version: 6.00 Build 0)  -->
<!DOCTYPE svg PUBLIC "-//W3C//DTD SVG 1.1//EN" "http://www.w3.org/Graphics/SVG/1.1/DTD/svg11.dtd">
<svg version="1.1" id="Capa_1" xmlns="http://www.w3.org/2000/svg" xmlns:xlink="http://www.w3.org/1999/xlink" x="0px" y="0px"
	 width="100px" height="100px" viewBox="0 0 100 100" enable-background="new 0 0 100 100" xml:space="preserve">
<path fill="#51B7D5" d="M23.494,41.716c2.316,6.718,6.375,11.147,10.697,10.861c4.32-0.287,7.757-5.213,9.167-12.18L23.494,41.716z"
	/>
<path fill="#51B7D5" d="M44.182,21.127c0.252-1.857,0.733-7.059-0.141-9.733C41.36,3.28,36.277,0.766,30.777,1.131
	c-7.498,0.496-12.866,11.567-11.993,24.727c0.241,3.637,0.936,7.052,1.97,10.08L43.47,34.43
	C43.278,30.649,43.483,26.233,44.182,21.127z"/>
<path fill="#51B7D5" d="M75.359,88.365c-2.531,6.644-6.729,10.937-11.041,10.508c-4.312-0.428-7.586-5.461-8.767-12.473
	L75.359,88.365z"/>
<path fill="#51B7D5" d="M55.355,67.115c-0.192-1.863-0.502-7.077,0.457-9.723c2.943-8.023,8.105-10.373,13.592-9.828
	c7.476,0.743,12.48,11.981,11.181,25.106c-0.358,3.626-1.164,7.019-2.296,10.011l-22.652-2.248
	C55.948,76.662,55.891,72.242,55.355,67.115z"/>
</svg>
