<?xml version="1.0" encoding="utf-8"?>
<!-- Generator: Adobe Illustrator 15.1.0, SVG Export Plug-In . SVG Version: 6.00 Build 0)  -->
<!DOCTYPE svg PUBLIC "-//W3C//DTD SVG 1.1//EN" "http://www.w3.org/Graphics/SVG/1.1/DTD/svg11.dtd">
<svg version="1.1" id="HEALTH_AND_FITNESS_lables_by_RedKoala_Design"
	 xmlns="http://www.w3.org/2000/svg" xmlns:xlink="http://www.w3.org/1999/xlink" x="0px" y="0px" width="350px" height="300px"
	 viewBox="0 0 350 300" enable-background="new 0 0 350 300" xml:space="preserve">
<g id="SCALE">
	<g id="scale">
		<path fill="#51B8D5" d="M306.437,8.351h-0.002h-0.002H43.121h-0.002c-19.117,0-34.67,15.553-34.67,34.672v9.439v36.373v167.26
			c0,19.119,15.555,34.672,34.672,34.672h263.314c19.117,0,34.67-15.553,34.67-34.672V88.835V52.462v-9.439
			C341.105,23.906,325.552,8.353,306.437,8.351z M207.277,57.888c0,4.695-3.809,8.504-8.504,8.504h-47.992
			c-4.697,0-8.504-3.809-8.504-8.504V34.896c0-4.697,3.807-8.504,8.504-8.504h47.992c4.695,0,8.504,3.807,8.504,8.504V57.888z"/>
		<polygon fill="#51B8D5" points="174.777,35.414 184.699,46.175 194.619,56.935 174.777,56.935 154.933,56.935 164.855,46.175 		
			"/>
	</g>
	<g id="feet">
		<g id="right">
			<path id="foot_2_" fill="#FFFFFF" d="M219.138,118.677c2.445-13.457,13.123-26.395,30.498-22.629
				c6.043,1.309,12.963,4.652,20.781,10.729c30.105,23.41,26.264,46.883,20.262,61.102c-8.141,19.293-8.934,14.617-15.438,34.908
				c-8.469,26.424,0.963,52.398-27.047,60.5c-3.463,1.002-7.344,1.049-11.186,0.217c-12.086-2.619-23.838-13.912-21.385-31.443
				c3.025-21.621,20.521-18.822,22.172-47.148c1.428-24.57-9.475-32.18-15.473-48.885
				C220.291,131.056,217.462,127.902,219.138,118.677z"/>
			<g id="toes_1_">
				<path fill="#FFFFFF" d="M247.113,70.525c1.789-7.621-1.506-14.795-7.363-16.021c-5.859-1.227-12.059,3.955-13.846,11.578
					c-1.791,7.619,1.508,14.793,7.367,16.021C239.125,83.33,245.324,78.146,247.113,70.525z"/>
				<path fill="#FFFFFF" d="M268.318,74.574c1.42-6.061-1.312-11.789-6.113-12.793c-4.797-1.006-9.842,3.092-11.264,9.152
					c-1.42,6.059,1.312,11.787,6.113,12.791C261.853,84.73,266.894,80.632,268.318,74.574z"/>
				<path fill="#FFFFFF" d="M285.357,84.841c1.285-5.473-1.303-10.664-5.781-11.602c-4.475-0.938-9.143,2.734-10.426,8.205
					c-1.285,5.469,1.301,10.662,5.775,11.6C279.404,93.982,284.076,90.308,285.357,84.841z"/>
				<path fill="#FFFFFF" d="M298.685,98.083c1.213-5.168-1.176-10.062-5.334-10.934c-4.16-0.871-8.518,2.609-9.73,7.775
					c-1.213,5.17,1.178,10.066,5.338,10.936C293.117,106.734,297.472,103.25,298.685,98.083z"/>
				<path fill="#FFFFFF" d="M308.599,114.435c1.074-4.58-1.168-8.949-5.008-9.754c-3.842-0.805-7.828,2.256-8.906,6.838
					c-1.074,4.582,1.17,8.949,5.008,9.756C303.535,122.078,307.523,119.015,308.599,114.435z"/>
			</g>
		</g>
		<g id="left_2_">
			<path id="foot_1_" fill="#FFFFFF" d="M130.416,118.677c-2.445-13.457-13.125-26.395-30.498-22.629
				c-6.045,1.309-12.965,4.652-20.781,10.729c-30.107,23.41-26.266,46.883-20.262,61.102c8.139,19.293,8.932,14.617,15.436,34.908
				c8.471,26.424-0.961,52.398,27.047,60.5c3.463,1.002,7.344,1.049,11.188,0.217c12.084-2.619,23.836-13.912,21.383-31.443
				c-3.025-21.621-20.521-18.822-22.17-47.148c-1.43-24.57,9.475-32.18,15.473-48.885
				C129.261,131.056,132.091,127.902,130.416,118.677z"/>
			<g id="toes_2_">
				<path fill="#FFFFFF" d="M102.441,70.525c-1.791-7.621,1.504-14.795,7.363-16.021s12.059,3.955,13.846,11.578
					c1.791,7.619-1.508,14.793-7.367,16.021C110.429,83.33,104.23,78.146,102.441,70.525z"/>
				<path fill="#FFFFFF" d="M81.234,74.574c-1.42-6.061,1.314-11.789,6.113-12.793c4.797-1.006,9.842,3.092,11.266,9.152
					c1.42,6.059-1.314,11.787-6.113,12.791C87.699,84.73,82.66,80.632,81.234,74.574z"/>
				<path fill="#FFFFFF" d="M64.195,84.841c-1.283-5.473,1.305-10.664,5.781-11.602c4.475-0.938,9.145,2.734,10.426,8.205
					c1.285,5.467-1.301,10.662-5.775,11.6C70.148,93.982,65.478,90.308,64.195,84.841z"/>
				<path fill="#FFFFFF" d="M50.869,98.083c-1.215-5.168,1.176-10.062,5.332-10.934c4.162-0.873,8.52,2.609,9.73,7.775
					c1.213,5.17-1.178,10.066-5.336,10.936C56.437,106.734,52.082,103.25,50.869,98.083z"/>
				<path fill="#FFFFFF" d="M40.953,114.435c-1.074-4.58,1.168-8.949,5.01-9.754s7.826,2.256,8.904,6.838
					c1.076,4.582-1.168,8.949-5.008,9.756C46.017,122.078,42.029,119.015,40.953,114.435z"/>
			</g>
		</g>
	</g>
</g>
</svg>
